<svg xmlns="http://www.w3.org/2000/svg" width="47.584" height="32.356" viewBox="0 0 47.584 32.356">
  <g id="Group_10224" data-name="Group 10224" transform="translate(-676.897 -335.5)">
    <g id="Group_10223" data-name="Group 10223" transform="translate(678.178 336.586)">
      <path id="Path_362" data-name="Path 362" d="M229.75,175.639c.264-.432.493-.89.8-1.292q3.383-4.482,6.792-8.945a1.924,1.924,0,0,1,2.976-.384c1.224.951,2.438,1.916,3.662,2.866a2.058,2.058,0,0,1,.891,1.764.463.463,0,0,0,.215.353q2.873,1.355,5.765,2.67a.637.637,0,0,0,.506-.066c.662-.4,1.31-.828,1.956-1.255a3.615,3.615,0,0,1,2.281-.632q2.058.133,4.115.267c.14.009.281,0,.478,0-.1-.151-.167-.257-.237-.362a1.884,1.884,0,0,1,.376-2.6q1.983-1.594,4.005-3.139a1.892,1.892,0,0,1,2.771.478q2.554,3.349,5.1,6.7c.567.745,1.148,1.479,1.7,2.238.3.421.549.884.821,1.329v.79a3.221,3.221,0,0,1-1.217,1.5c-1.13.857-2.242,1.74-3.353,2.622a1.98,1.98,0,0,1-2.251.278.452.452,0,0,0-.4.053q-2.5,2.241-4.975,4.511a.44.44,0,0,0-.094.389,2.3,2.3,0,0,1-.371,2.543,2.261,2.261,0,0,1-2.475.675,1.279,1.279,0,0,0-.187-.022,2.414,2.414,0,0,1-2.551,2.009,2.383,2.383,0,0,1-.8,1.963,2.408,2.408,0,0,1-2.06.529,2.342,2.342,0,0,1-1.98,2.232c-1.2.227-1.97-.522-2.769-1.418-.2.246-.346.466-.529.653a2.334,2.334,0,0,1-4.067-1.5c0-.071-.01-.143-.019-.253a2.553,2.553,0,0,1-1.837-.684,2.493,2.493,0,0,1-.709-1.875,2.5,2.5,0,0,1-1.839-.678,2.468,2.468,0,0,1-.712-1.843,7.26,7.26,0,0,1-.825-.124,2.317,2.317,0,0,1-1.1-3.82c.387-.416.82-.789,1.279-1.225-.836-.686-1.608-1.325-2.392-1.95-.066-.053-.218-.026-.32,0a1.982,1.982,0,0,1-1.807-.416c-1.123-.891-2.245-1.783-3.388-2.649a3.2,3.2,0,0,1-1.219-1.494Zm20.234,17.929c.307.308.533.558.782.78a1.27,1.27,0,0,0,1.814-1.772c-.188-.224-.407-.42-.61-.631a.526.526,0,1,1,.743-.741c.274.264.537.539.81.8a1.282,1.282,0,0,0,1.878.09,1.3,1.3,0,0,0-.061-1.881c-.407-.421-.828-.828-1.24-1.244-.331-.334-.378-.632-.146-.874.248-.259.546-.213.906.143.447.443.881.9,1.34,1.33a1.257,1.257,0,0,0,1.506.163,1.217,1.217,0,0,0,.577-1.394,1.8,1.8,0,0,0-.423-.7c-.688-.719-1.4-1.412-2.1-2.118-.326-.328-.363-.636-.118-.873s.538-.187.874.141c.063.061.124.124.186.186.859.859,1.709,1.728,2.584,2.57a1.9,1.9,0,0,0,.771.462,1.2,1.2,0,0,0,1.374-.617,1.311,1.311,0,0,0-.3-1.6q-3.426-3.435-6.855-6.868a.4.4,0,0,0-.527-.1c-1.217.536-2.432,1.077-3.665,1.575a2.857,2.857,0,0,1-3.634-1.34,2.9,2.9,0,0,1,.93-3.874c.51-.341,1.032-.667,1.547-1,.349-.226.7-.456,1.1-.723l-5.658-2.628-7.135,9.381,2.366,1.944c.4-.407.782-.791,1.163-1.173s.757-.775,1.154-1.144a2.323,2.323,0,0,1,3.85,2.218c-.027.121-.041.244-.061.365a2.4,2.4,0,0,1,1.757,3.479,2.5,2.5,0,0,1,1.566,1.1,2.535,2.535,0,0,1,.24,1.947l.194.043a2.341,2.341,0,0,1,1.145,4.041C250.413,193.225,250.2,193.383,249.984,193.568ZM266.99,179.9c-1.944-2.556-3.862-5.082-5.789-7.6a.5.5,0,0,0-.328-.162c-1.765-.126-3.53-.239-5.3-.36a2.7,2.7,0,0,0-1.7.465q-2.886,1.875-5.78,3.737a1.874,1.874,0,0,0-.71,2.618,1.835,1.835,0,0,0,2.49.761c1.263-.538,2.531-1.065,3.779-1.635a.858.858,0,0,1,1.118.222c2.149,2.174,4.317,4.33,6.479,6.491.111.111.227.216.36.343Zm-22.139,1.717a1.507,1.507,0,0,0-.843-1.227,1.256,1.256,0,0,0-1.448.3q-2.052,2.038-4.091,4.09a1.277,1.277,0,1,0,1.788,1.815c1.372-1.355,2.739-2.715,4.085-4.1A4.078,4.078,0,0,0,244.851,181.612Zm-2.964,8.021a3.184,3.184,0,0,0,.834-.423q1.812-1.75,3.57-3.557a1.27,1.27,0,0,0-1.814-1.78c-.363.339-.706.7-1.057,1.05-.816.816-1.635,1.629-2.446,2.45a1.228,1.228,0,0,0-.292,1.41A1.469,1.469,0,0,0,241.887,189.633Zm6.5-1.383a1.421,1.421,0,0,0-.828-1.184,1.233,1.233,0,0,0-1.45.28c-.862.852-1.722,1.706-2.57,2.572a1.272,1.272,0,1,0,1.8,1.8c.878-.856,1.751-1.718,2.595-2.608A3.592,3.592,0,0,0,248.382,188.249Zm2.022,3.108a1.489,1.489,0,0,0-.86-1.221,1.234,1.234,0,0,0-1.413.284q-1.034,1.011-2.045,2.046a1.274,1.274,0,1,0,1.809,1.792c.68-.662,1.362-1.324,2.007-2.021A4.352,4.352,0,0,0,250.4,191.357Z" transform="translate(-229.75 -164.479)" fill-rule="evenodd"/>
    </g>
    <rect id="Rectangle_697" data-name="Rectangle 697" width="9.848" height="16.741" rx="2" transform="translate(686.972 335.708) rotate(37)" fill="red"/>
    <rect id="Rectangle_698" data-name="Rectangle 698" width="9.848" height="16.741" rx="2" transform="matrix(-0.799, 0.602, -0.602, -0.799, 724.482, 348.87)" fill="#29abe2"/>
  </g>
</svg>
