<svg id="Group_10221" data-name="Group 10221" xmlns="http://www.w3.org/2000/svg" width="21.39" height="24.713" viewBox="0 0 21.39 24.713">
  <path id="Path_360" data-name="Path 360" d="M266.288,130.743h-.1c-.52-.247-1.052-.473-1.558-.746a16.306,16.306,0,0,1-7.559-8.352,20.829,20.829,0,0,1-1.528-8.414,1.872,1.872,0,0,1,1-1.693c2.1-1.229,4.174-2.507,6.285-3.718a13.505,13.505,0,0,1,3.361-1.79h.145a7.636,7.636,0,0,1,1.036.427c2.837,1.674,5.658,3.376,8.5,5.041a1.962,1.962,0,0,1,1.06,1.877c-.018.746-.042,1.492-.092,2.237a18.938,18.938,0,0,1-.724,3.989,16.6,16.6,0,0,1-6.863,9.559A16.356,16.356,0,0,1,266.288,130.743Zm-.056-3.2c.089-.036.142-.052.19-.078a13.577,13.577,0,0,0,5.129-4.711,16.762,16.762,0,0,0,2.482-8.733.363.363,0,0,0-.214-.36q-3.669-2.177-7.334-4.361c-.073-.043-.15-.078-.253-.13Z" transform="translate(-255.543 -106.03)" fill="red" fill-rule="evenodd"/>
</svg>
