<svg xmlns="http://www.w3.org/2000/svg" width="28.13" height="32.5" viewBox="0 0 28.13 32.5">
  <g id="Group_10222" data-name="Group 10222" transform="translate(-468 -164.024)">
    <path id="Path_361" data-name="Path 361" d="M63.148-4902.667l12.753,7.11v3.161s-1.241,14.672-11.173,16.817S63.148-4902.667,63.148-4902.667Z" transform="translate(417.775 5069.003)" fill="#fff"/>
    <g id="Group_10221" data-name="Group 10221" transform="translate(468 164.024)">
      <path id="Path_360" data-name="Path 360" d="M269.674,138.53h-.127c-.684-.325-1.383-.622-2.049-.981a21.444,21.444,0,0,1-9.941-10.984,27.393,27.393,0,0,1-2.009-11.065,2.462,2.462,0,0,1,1.313-2.227c2.763-1.616,5.489-3.3,8.265-4.89,1.446-.83,2.75-1.94,4.42-2.354h.19a10.043,10.043,0,0,1,1.362.561c3.731,2.2,7.441,4.44,11.179,6.629a2.581,2.581,0,0,1,1.394,2.469c-.023.981-.055,1.963-.12,2.942a24.906,24.906,0,0,1-.952,5.246,21.832,21.832,0,0,1-9.026,12.571A21.509,21.509,0,0,1,269.674,138.53Zm-.073-4.2c.117-.047.187-.068.25-.1a17.856,17.856,0,0,0,6.745-6.2,22.044,22.044,0,0,0,3.265-11.485.477.477,0,0,0-.282-.474q-4.825-2.863-9.645-5.736c-.1-.057-.2-.1-.332-.171Z" transform="translate(-255.543 -106.03)" fill="red" fill-rule="evenodd"/>
    </g>
  </g>
</svg>
