<svg xmlns="http://www.w3.org/2000/svg" width="70" height="70" viewBox="0 0 70 70">
  <g id="Icon_ionic-ios-checkmark-circle-outline" data-name="Icon ionic-ios-checkmark-circle-outline" transform="translate(-3.375 -3.375)">
    <path id="Path_373" data-name="Path 373" d="M46.394,15.462l-2.955-3.053a.634.634,0,0,0-.47-.2h0a.608.608,0,0,0-.47.2L22.018,33.141l-7.454-7.49a.647.647,0,0,0-.94,0l-2.988,3a.674.674,0,0,0,0,.962l9.4,9.447A2.967,2.967,0,0,0,22,40.023a3.11,3.11,0,0,0,1.947-.928h.017L46.41,16.424A.724.724,0,0,0,46.394,15.462Z" transform="translate(9.877 12.269)" fill="#319400"/>
    <path id="Path_374" data-name="Path 374" d="M38.375,8.087A30.293,30.293,0,0,1,59.8,59.8,30.293,30.293,0,0,1,16.954,16.954,30.088,30.088,0,0,1,38.375,8.087m0-4.712a35,35,0,1,0,35,35,34.995,34.995,0,0,0-35-35Z" transform="translate(0 0)" fill="#319400"/>
  </g>
</svg>
